<mxfile host="app.diagrams.net" agent="Mozilla/5.0 (X11; Linux x86_64) AppleWebKit/537.36 (KHTML, like Gecko) Chrome/109.0.0.0 Safari/537.36" version="24.7.10">
  <diagram name="Page-1" id="qAx_eTldICyNDFPyGSnK">
    <mxGraphModel dx="1042" dy="627" grid="1" gridSize="10" guides="1" tooltips="1" connect="1" arrows="1" fold="1" page="1" pageScale="1" pageWidth="850" pageHeight="1100" math="0" shadow="0">
      <root>
        <mxCell id="0" />
        <mxCell id="1" parent="0" />
        <mxCell id="PxeLG39YRaMGFSSouo8R-1" value="" style="rounded=0;whiteSpace=wrap;html=1;" vertex="1" parent="1">
          <mxGeometry x="350" y="40" width="210" height="330" as="geometry" />
        </mxCell>
        <mxCell id="PxeLG39YRaMGFSSouo8R-5" value="" style="ellipse;whiteSpace=wrap;html=1;" vertex="1" parent="1">
          <mxGeometry x="407.5" y="210" width="95" height="70" as="geometry" />
        </mxCell>
        <mxCell id="PxeLG39YRaMGFSSouo8R-10" value="Lihat Riwayat piket" style="text;html=1;align=center;verticalAlign=middle;whiteSpace=wrap;rounded=0;" vertex="1" parent="1">
          <mxGeometry x="425" y="230" width="60" height="30" as="geometry" />
        </mxCell>
        <mxCell id="PxeLG39YRaMGFSSouo8R-12" value="Walikelas" style="shape=umlActor;verticalLabelPosition=bottom;verticalAlign=top;html=1;outlineConnect=0;" vertex="1" parent="1">
          <mxGeometry x="130" y="110" width="110" height="200" as="geometry" />
        </mxCell>
        <mxCell id="PxeLG39YRaMGFSSouo8R-13" value="Siswa" style="shape=umlActor;verticalLabelPosition=bottom;verticalAlign=top;html=1;outlineConnect=0;" vertex="1" parent="1">
          <mxGeometry x="680" y="110" width="110" height="200" as="geometry" />
        </mxCell>
        <mxCell id="PxeLG39YRaMGFSSouo8R-14" value="" style="endArrow=none;html=1;rounded=0;entryX=0;entryY=0.5;entryDx=0;entryDy=0;" edge="1" parent="1" target="PxeLG39YRaMGFSSouo8R-25">
          <mxGeometry width="50" height="50" relative="1" as="geometry">
            <mxPoint x="260" y="130" as="sourcePoint" />
            <mxPoint x="407.5" y="95" as="targetPoint" />
          </mxGeometry>
        </mxCell>
        <mxCell id="PxeLG39YRaMGFSSouo8R-15" value="" style="endArrow=none;html=1;rounded=0;entryX=0.026;entryY=0.571;entryDx=0;entryDy=0;entryPerimeter=0;" edge="1" parent="1" target="PxeLG39YRaMGFSSouo8R-23">
          <mxGeometry width="50" height="50" relative="1" as="geometry">
            <mxPoint x="260" y="150" as="sourcePoint" />
            <mxPoint x="402.04999999999995" y="158.98000000000002" as="targetPoint" />
          </mxGeometry>
        </mxCell>
        <mxCell id="PxeLG39YRaMGFSSouo8R-16" value="" style="endArrow=none;html=1;rounded=0;entryX=0;entryY=0.5;entryDx=0;entryDy=0;" edge="1" parent="1" target="PxeLG39YRaMGFSSouo8R-5">
          <mxGeometry width="50" height="50" relative="1" as="geometry">
            <mxPoint x="240" y="200" as="sourcePoint" />
            <mxPoint x="450" y="270" as="targetPoint" />
          </mxGeometry>
        </mxCell>
        <mxCell id="PxeLG39YRaMGFSSouo8R-17" value="" style="endArrow=none;html=1;rounded=0;exitX=1;exitY=0.5;exitDx=0;exitDy=0;" edge="1" parent="1" source="PxeLG39YRaMGFSSouo8R-25">
          <mxGeometry width="50" height="50" relative="1" as="geometry">
            <mxPoint x="502.5" y="95" as="sourcePoint" />
            <mxPoint x="660" y="130" as="targetPoint" />
          </mxGeometry>
        </mxCell>
        <mxCell id="PxeLG39YRaMGFSSouo8R-19" value="" style="endArrow=none;html=1;rounded=0;entryX=1;entryY=0.571;entryDx=0;entryDy=0;entryPerimeter=0;" edge="1" parent="1" target="PxeLG39YRaMGFSSouo8R-23">
          <mxGeometry width="50" height="50" relative="1" as="geometry">
            <mxPoint x="650" y="150" as="sourcePoint" />
            <mxPoint x="502.5" y="165" as="targetPoint" />
            <Array as="points" />
          </mxGeometry>
        </mxCell>
        <mxCell id="PxeLG39YRaMGFSSouo8R-20" value="" style="endArrow=none;html=1;rounded=0;exitX=0.937;exitY=0.229;exitDx=0;exitDy=0;exitPerimeter=0;" edge="1" parent="1" source="PxeLG39YRaMGFSSouo8R-21">
          <mxGeometry width="50" height="50" relative="1" as="geometry">
            <mxPoint x="495" y="315" as="sourcePoint" />
            <mxPoint x="660" y="240" as="targetPoint" />
          </mxGeometry>
        </mxCell>
        <mxCell id="PxeLG39YRaMGFSSouo8R-21" value="" style="ellipse;whiteSpace=wrap;html=1;" vertex="1" parent="1">
          <mxGeometry x="407.5" y="290" width="95" height="70" as="geometry" />
        </mxCell>
        <mxCell id="PxeLG39YRaMGFSSouo8R-22" value="piket" style="text;html=1;align=center;verticalAlign=middle;whiteSpace=wrap;rounded=0;" vertex="1" parent="1">
          <mxGeometry x="425" y="310" width="60" height="30" as="geometry" />
        </mxCell>
        <mxCell id="PxeLG39YRaMGFSSouo8R-23" value="" style="ellipse;whiteSpace=wrap;html=1;" vertex="1" parent="1">
          <mxGeometry x="407.5" y="130" width="95" height="70" as="geometry" />
        </mxCell>
        <mxCell id="PxeLG39YRaMGFSSouo8R-24" value="Lihat Jadwal piket" style="text;html=1;align=center;verticalAlign=middle;whiteSpace=wrap;rounded=0;" vertex="1" parent="1">
          <mxGeometry x="425" y="150" width="60" height="30" as="geometry" />
        </mxCell>
        <mxCell id="PxeLG39YRaMGFSSouo8R-25" value="" style="ellipse;whiteSpace=wrap;html=1;" vertex="1" parent="1">
          <mxGeometry x="407.5" y="50" width="95" height="70" as="geometry" />
        </mxCell>
        <mxCell id="PxeLG39YRaMGFSSouo8R-26" value="login" style="text;html=1;align=center;verticalAlign=middle;whiteSpace=wrap;rounded=0;" vertex="1" parent="1">
          <mxGeometry x="425" y="70" width="60" height="30" as="geometry" />
        </mxCell>
        <mxCell id="PxeLG39YRaMGFSSouo8R-28" value="" style="endArrow=none;html=1;rounded=0;entryX=1;entryY=0.5;entryDx=0;entryDy=0;" edge="1" parent="1" target="PxeLG39YRaMGFSSouo8R-5">
          <mxGeometry width="50" height="50" relative="1" as="geometry">
            <mxPoint x="660" y="190" as="sourcePoint" />
            <mxPoint x="513" y="180" as="targetPoint" />
            <Array as="points" />
          </mxGeometry>
        </mxCell>
      </root>
    </mxGraphModel>
  </diagram>
</mxfile>
